<svg xmlns="http://www.w3.org/2000/svg" xmlns:xlink="http://www.w3.org/1999/xlink" width="164" zoomAndPan="magnify" viewBox="0 0 123 37.5" height="50" preserveAspectRatio="xMidYMid meet" version="1.0"><defs><g/><clipPath id="a271aedbb0"><path d="M 0.808594 0 L 37.816406 0 L 37.816406 37 L 0.808594 37 Z M 0.808594 0 " clip-rule="nonzero"/></clipPath><clipPath id="7934270d80"><path d="M 14 6.316406 L 27.242188 6.316406 L 27.242188 21.117188 L 14 21.117188 Z M 14 6.316406 " clip-rule="nonzero"/></clipPath><clipPath id="f827b230e7"><path d="M 10.960938 14 L 16 14 L 16 21.117188 L 10.960938 21.117188 Z M 10.960938 14 " clip-rule="nonzero"/></clipPath></defs><g clip-path="url(#a271aedbb0)"><path fill="#c3fffc" d="M 6.898438 36.84375 L 31.5625 36.84375 C 34.921875 36.84375 37.652344 34.113281 37.652344 30.753906 L 37.652344 6.089844 C 37.652344 2.730469 34.921875 0 31.5625 0 L 6.898438 0 C 3.539062 0 0.808594 2.730469 0.808594 6.089844 L 0.808594 30.753906 C 0.808594 34.113281 3.539062 36.84375 6.898438 36.84375 Z M 6.898438 36.84375 " fill-opacity="1" fill-rule="nonzero"/></g><g clip-path="url(#7934270d80)"><path fill="#4eaee6" d="M 27.503906 21.0625 L 20.378906 6.316406 L 18.089844 6.316406 L 15.140625 12.421875 L 18.3125 12.542969 L 19.234375 10.652344 L 21.75 15.828125 L 20.023438 14.730469 L 18.449219 13.726562 L 18.859375 13.074219 L 14.269531 12.898438 L 16.410156 16.960938 L 16.820312 16.308594 L 19.808594 18.214844 L 24.277344 21.0625 L 24.285156 21.046875 L 24.292969 21.0625 L 27.503906 21.0625 " fill-opacity="1" fill-rule="nonzero"/></g><g clip-path="url(#f827b230e7)"><path fill="#3870c2" d="M 10.964844 21.0625 L 14.175781 21.0625 L 15.984375 17.339844 L 14.324219 14.109375 L 10.964844 21.0625 " fill-opacity="1" fill-rule="nonzero"/></g><path fill="#4eaee6" d="M 14.605469 13.527344 L 14.589844 13.554688 L 14.621094 13.558594 Z M 14.605469 13.527344 " fill-opacity="1" fill-rule="nonzero"/><path fill="#333333" d="M 14.621094 13.558594 L 14.589844 13.554688 L 14.324219 14.109375 L 15.984375 17.339844 L 16.285156 16.71875 L 14.621094 13.558594 " fill-opacity="1" fill-rule="nonzero"/><g fill="#000000" fill-opacity="1"><g transform="translate(8.581249, 29.963224)"><g><path d="M 0.9375 -0.359375 C 0.9375 -0.234375 0.890625 -0.140625 0.796875 -0.078125 C 0.710938 -0.015625 0.597656 0.015625 0.453125 0.015625 C 0.378906 0.015625 0.3125 0.0078125 0.25 0 C 0.1875 -0.0078125 0.132812 -0.0234375 0.09375 -0.046875 L 0.09375 -0.203125 C 0.132812 -0.179688 0.1875 -0.160156 0.25 -0.140625 C 0.320312 -0.128906 0.394531 -0.125 0.46875 -0.125 C 0.5625 -0.125 0.632812 -0.140625 0.6875 -0.171875 C 0.738281 -0.210938 0.765625 -0.269531 0.765625 -0.34375 C 0.765625 -0.382812 0.753906 -0.421875 0.734375 -0.453125 C 0.710938 -0.484375 0.679688 -0.507812 0.640625 -0.53125 C 0.597656 -0.550781 0.535156 -0.578125 0.453125 -0.609375 C 0.335938 -0.648438 0.25 -0.703125 0.1875 -0.765625 C 0.132812 -0.828125 0.109375 -0.90625 0.109375 -1 C 0.109375 -1.070312 0.125 -1.132812 0.15625 -1.1875 C 0.195312 -1.238281 0.25 -1.273438 0.3125 -1.296875 C 0.375 -1.328125 0.445312 -1.34375 0.53125 -1.34375 C 0.601562 -1.34375 0.671875 -1.335938 0.734375 -1.328125 C 0.796875 -1.316406 0.851562 -1.296875 0.90625 -1.265625 L 0.84375 -1.125 C 0.800781 -1.144531 0.753906 -1.160156 0.703125 -1.171875 C 0.648438 -1.191406 0.59375 -1.203125 0.53125 -1.203125 C 0.445312 -1.203125 0.382812 -1.179688 0.34375 -1.140625 C 0.300781 -1.109375 0.28125 -1.0625 0.28125 -1 C 0.28125 -0.957031 0.289062 -0.921875 0.3125 -0.890625 C 0.332031 -0.859375 0.363281 -0.832031 0.40625 -0.8125 C 0.445312 -0.789062 0.503906 -0.765625 0.578125 -0.734375 C 0.648438 -0.710938 0.710938 -0.679688 0.765625 -0.640625 C 0.816406 -0.609375 0.859375 -0.566406 0.890625 -0.515625 C 0.921875 -0.472656 0.9375 -0.421875 0.9375 -0.359375 Z M 0.9375 -0.359375 "/></g></g></g><g fill="#000000" fill-opacity="1"><g transform="translate(9.734756, 29.963224)"><g><path d="M 0.625 -1.015625 C 0.75 -1.015625 0.847656 -0.972656 0.921875 -0.890625 C 1.003906 -0.804688 1.046875 -0.675781 1.046875 -0.5 C 1.046875 -0.332031 1.003906 -0.203125 0.921875 -0.109375 C 0.847656 -0.0234375 0.75 0.015625 0.625 0.015625 C 0.550781 0.015625 0.488281 0.00390625 0.4375 -0.015625 C 0.382812 -0.046875 0.347656 -0.0820312 0.328125 -0.125 L 0.3125 -0.125 C 0.3125 -0.101562 0.3125 -0.078125 0.3125 -0.046875 C 0.320312 -0.015625 0.328125 0.0078125 0.328125 0.03125 L 0.328125 0.453125 L 0.15625 0.453125 L 0.15625 -1 L 0.296875 -1 L 0.3125 -0.859375 L 0.328125 -0.859375 C 0.347656 -0.898438 0.382812 -0.9375 0.4375 -0.96875 C 0.488281 -1 0.550781 -1.015625 0.625 -1.015625 Z M 0.609375 -0.875 C 0.503906 -0.875 0.429688 -0.84375 0.390625 -0.78125 C 0.347656 -0.726562 0.328125 -0.644531 0.328125 -0.53125 L 0.328125 -0.5 C 0.328125 -0.375 0.34375 -0.273438 0.375 -0.203125 C 0.414062 -0.140625 0.492188 -0.109375 0.609375 -0.109375 C 0.671875 -0.109375 0.71875 -0.125 0.75 -0.15625 C 0.789062 -0.195312 0.820312 -0.242188 0.84375 -0.296875 C 0.863281 -0.359375 0.875 -0.425781 0.875 -0.5 C 0.875 -0.613281 0.847656 -0.703125 0.796875 -0.765625 C 0.753906 -0.835938 0.691406 -0.875 0.609375 -0.875 Z M 0.609375 -0.875 "/></g></g></g><g fill="#000000" fill-opacity="1"><g transform="translate(11.010848, 29.963224)"><g><path d="M 0.625 -1.015625 C 0.644531 -1.015625 0.664062 -1.015625 0.6875 -1.015625 C 0.707031 -1.015625 0.722656 -1.007812 0.734375 -1 L 0.71875 -0.859375 C 0.707031 -0.859375 0.691406 -0.859375 0.671875 -0.859375 C 0.648438 -0.859375 0.628906 -0.859375 0.609375 -0.859375 C 0.554688 -0.859375 0.507812 -0.84375 0.46875 -0.8125 C 0.425781 -0.789062 0.390625 -0.753906 0.359375 -0.703125 C 0.335938 -0.648438 0.328125 -0.59375 0.328125 -0.53125 L 0.328125 0 L 0.15625 0 L 0.15625 -1 L 0.296875 -1 L 0.3125 -0.8125 C 0.34375 -0.863281 0.382812 -0.910156 0.4375 -0.953125 C 0.488281 -0.992188 0.550781 -1.015625 0.625 -1.015625 Z M 0.625 -1.015625 "/></g></g></g><g fill="#000000" fill-opacity="1"><g transform="translate(11.911754, 29.963224)"><g><path d="M 0.546875 -1.015625 C 0.628906 -1.015625 0.703125 -0.992188 0.765625 -0.953125 C 0.828125 -0.921875 0.875 -0.867188 0.90625 -0.796875 C 0.9375 -0.734375 0.953125 -0.65625 0.953125 -0.5625 L 0.953125 -0.46875 L 0.265625 -0.46875 C 0.273438 -0.351562 0.304688 -0.265625 0.359375 -0.203125 C 0.410156 -0.148438 0.488281 -0.125 0.59375 -0.125 C 0.65625 -0.125 0.707031 -0.128906 0.75 -0.140625 C 0.800781 -0.148438 0.851562 -0.164062 0.90625 -0.1875 L 0.90625 -0.046875 C 0.851562 -0.0234375 0.800781 -0.0078125 0.75 0 C 0.707031 0.0078125 0.648438 0.015625 0.578125 0.015625 C 0.484375 0.015625 0.398438 0 0.328125 -0.03125 C 0.253906 -0.0703125 0.195312 -0.128906 0.15625 -0.203125 C 0.125 -0.285156 0.109375 -0.378906 0.109375 -0.484375 C 0.109375 -0.597656 0.125 -0.691406 0.15625 -0.765625 C 0.195312 -0.847656 0.25 -0.910156 0.3125 -0.953125 C 0.375 -0.992188 0.453125 -1.015625 0.546875 -1.015625 Z M 0.546875 -0.875 C 0.460938 -0.875 0.394531 -0.847656 0.34375 -0.796875 C 0.300781 -0.753906 0.28125 -0.6875 0.28125 -0.59375 L 0.78125 -0.59375 C 0.78125 -0.675781 0.757812 -0.742188 0.71875 -0.796875 C 0.6875 -0.847656 0.628906 -0.875 0.546875 -0.875 Z M 0.546875 -0.875 "/></g></g></g><g fill="#000000" fill-opacity="1"><g transform="translate(13.093122, 29.963224)"><g><path d="M 0.53125 -1.015625 C 0.65625 -1.015625 0.742188 -0.988281 0.796875 -0.9375 C 0.859375 -0.882812 0.890625 -0.796875 0.890625 -0.671875 L 0.890625 0 L 0.78125 0 L 0.734375 -0.140625 C 0.691406 -0.0859375 0.644531 -0.046875 0.59375 -0.015625 C 0.550781 0.00390625 0.488281 0.015625 0.40625 0.015625 C 0.3125 0.015625 0.234375 -0.00390625 0.171875 -0.046875 C 0.109375 -0.0976562 0.078125 -0.175781 0.078125 -0.28125 C 0.078125 -0.375 0.113281 -0.445312 0.1875 -0.5 C 0.269531 -0.5625 0.394531 -0.59375 0.5625 -0.59375 L 0.734375 -0.59375 L 0.734375 -0.65625 C 0.734375 -0.738281 0.710938 -0.796875 0.671875 -0.828125 C 0.640625 -0.859375 0.59375 -0.875 0.53125 -0.875 C 0.476562 -0.875 0.425781 -0.863281 0.375 -0.84375 C 0.332031 -0.832031 0.289062 -0.820312 0.25 -0.8125 L 0.1875 -0.921875 C 0.238281 -0.953125 0.289062 -0.972656 0.34375 -0.984375 C 0.40625 -1.003906 0.46875 -1.015625 0.53125 -1.015625 Z M 0.734375 -0.484375 L 0.578125 -0.484375 C 0.453125 -0.472656 0.363281 -0.453125 0.3125 -0.421875 C 0.269531 -0.390625 0.25 -0.34375 0.25 -0.28125 C 0.25 -0.21875 0.265625 -0.171875 0.296875 -0.140625 C 0.335938 -0.117188 0.382812 -0.109375 0.4375 -0.109375 C 0.519531 -0.109375 0.585938 -0.128906 0.640625 -0.171875 C 0.703125 -0.222656 0.734375 -0.296875 0.734375 -0.390625 Z M 0.734375 -0.484375 "/></g></g></g><g fill="#000000" fill-opacity="1"><g transform="translate(14.268916, 29.963224)"><g><path d="M 0.515625 0.015625 C 0.390625 0.015625 0.289062 -0.0234375 0.21875 -0.109375 C 0.144531 -0.191406 0.109375 -0.320312 0.109375 -0.5 C 0.109375 -0.664062 0.144531 -0.789062 0.21875 -0.875 C 0.289062 -0.96875 0.390625 -1.015625 0.515625 -1.015625 C 0.585938 -1.015625 0.648438 -1 0.703125 -0.96875 C 0.753906 -0.945312 0.796875 -0.914062 0.828125 -0.875 C 0.828125 -0.882812 0.828125 -0.90625 0.828125 -0.9375 C 0.828125 -0.96875 0.828125 -0.992188 0.828125 -1.015625 L 0.828125 -1.40625 L 0.984375 -1.40625 L 0.984375 0 L 0.859375 0 L 0.828125 -0.140625 C 0.796875 -0.0976562 0.753906 -0.0625 0.703125 -0.03125 C 0.648438 0 0.585938 0.015625 0.515625 0.015625 Z M 0.53125 -0.109375 C 0.644531 -0.109375 0.722656 -0.140625 0.765625 -0.203125 C 0.804688 -0.265625 0.828125 -0.351562 0.828125 -0.46875 L 0.828125 -0.5 C 0.828125 -0.625 0.804688 -0.71875 0.765625 -0.78125 C 0.722656 -0.84375 0.644531 -0.875 0.53125 -0.875 C 0.445312 -0.875 0.378906 -0.835938 0.328125 -0.765625 C 0.285156 -0.703125 0.265625 -0.613281 0.265625 -0.5 C 0.265625 -0.375 0.285156 -0.273438 0.328125 -0.203125 C 0.378906 -0.140625 0.445312 -0.109375 0.53125 -0.109375 Z M 0.53125 -0.109375 "/></g></g></g><g fill="#000000" fill-opacity="1"><g transform="translate(15.545009, 29.963224)"><g><path d="M 0.234375 -1.375 C 0.265625 -1.375 0.289062 -1.363281 0.3125 -1.34375 C 0.332031 -1.320312 0.34375 -1.296875 0.34375 -1.265625 C 0.34375 -1.234375 0.332031 -1.207031 0.3125 -1.1875 C 0.289062 -1.164062 0.265625 -1.15625 0.234375 -1.15625 C 0.210938 -1.15625 0.191406 -1.164062 0.171875 -1.1875 C 0.148438 -1.207031 0.140625 -1.234375 0.140625 -1.265625 C 0.140625 -1.296875 0.148438 -1.320312 0.171875 -1.34375 C 0.191406 -1.363281 0.210938 -1.375 0.234375 -1.375 Z M 0.328125 -1 L 0.328125 0 L 0.15625 0 L 0.15625 -1 Z M 0.328125 -1 "/></g></g></g><g fill="#000000" fill-opacity="1"><g transform="translate(16.158024, 29.963224)"><g><path d="M 0.640625 -1.015625 C 0.753906 -1.015625 0.84375 -0.984375 0.90625 -0.921875 C 0.96875 -0.867188 1 -0.78125 1 -0.65625 L 1 0 L 0.84375 0 L 0.84375 -0.640625 C 0.84375 -0.796875 0.765625 -0.875 0.609375 -0.875 C 0.503906 -0.875 0.429688 -0.84375 0.390625 -0.78125 C 0.347656 -0.71875 0.328125 -0.628906 0.328125 -0.515625 L 0.328125 0 L 0.15625 0 L 0.15625 -1 L 0.296875 -1 L 0.3125 -0.859375 L 0.328125 -0.859375 C 0.359375 -0.910156 0.398438 -0.945312 0.453125 -0.96875 C 0.515625 -1 0.578125 -1.015625 0.640625 -1.015625 Z M 0.640625 -1.015625 "/></g></g></g><g fill="#000000" fill-opacity="1"><g transform="translate(17.439689, 29.963224)"><g><path d="M 0.515625 -1.015625 C 0.578125 -1.015625 0.632812 -1 0.6875 -0.96875 C 0.738281 -0.945312 0.785156 -0.910156 0.828125 -0.859375 L 0.859375 -1 L 0.984375 -1 L 0.984375 0.015625 C 0.984375 0.160156 0.945312 0.269531 0.875 0.34375 C 0.800781 0.414062 0.691406 0.453125 0.546875 0.453125 C 0.390625 0.453125 0.269531 0.429688 0.1875 0.390625 L 0.1875 0.234375 C 0.28125 0.285156 0.398438 0.3125 0.546875 0.3125 C 0.628906 0.3125 0.695312 0.285156 0.75 0.234375 C 0.800781 0.179688 0.828125 0.113281 0.828125 0.03125 L 0.828125 -0.015625 C 0.828125 -0.0234375 0.828125 -0.0390625 0.828125 -0.0625 C 0.828125 -0.09375 0.828125 -0.113281 0.828125 -0.125 C 0.753906 -0.03125 0.648438 0.015625 0.515625 0.015625 C 0.378906 0.015625 0.273438 -0.0234375 0.203125 -0.109375 C 0.140625 -0.203125 0.109375 -0.332031 0.109375 -0.5 C 0.109375 -0.65625 0.140625 -0.78125 0.203125 -0.875 C 0.273438 -0.96875 0.378906 -1.015625 0.515625 -1.015625 Z M 0.53125 -0.875 C 0.445312 -0.875 0.378906 -0.835938 0.328125 -0.765625 C 0.285156 -0.703125 0.265625 -0.613281 0.265625 -0.5 C 0.265625 -0.375 0.285156 -0.273438 0.328125 -0.203125 C 0.378906 -0.140625 0.445312 -0.109375 0.53125 -0.109375 C 0.632812 -0.109375 0.707031 -0.132812 0.75 -0.1875 C 0.800781 -0.25 0.828125 -0.335938 0.828125 -0.453125 L 0.828125 -0.5 C 0.828125 -0.632812 0.800781 -0.726562 0.75 -0.78125 C 0.707031 -0.84375 0.632812 -0.875 0.53125 -0.875 Z M 0.53125 -0.875 "/></g></g></g><g fill="#000000" fill-opacity="1"><g transform="translate(18.715782, 29.963224)"><g/></g></g><g fill="#000000" fill-opacity="1"><g transform="translate(19.035333, 29.963224)"><g><path d="M 0.546875 0 L 0.078125 0 L 0.078125 -0.09375 L 0.234375 -0.125 L 0.234375 -1.1875 L 0.078125 -1.234375 L 0.078125 -1.328125 L 0.546875 -1.328125 L 0.546875 -1.234375 L 0.390625 -1.1875 L 0.390625 -0.125 L 0.546875 -0.09375 Z M 0.546875 0 "/></g></g></g><g fill="#000000" fill-opacity="1"><g transform="translate(19.798795, 29.963224)"><g><path d="M 0.640625 -1.015625 C 0.753906 -1.015625 0.84375 -0.984375 0.90625 -0.921875 C 0.96875 -0.867188 1 -0.78125 1 -0.65625 L 1 0 L 0.84375 0 L 0.84375 -0.640625 C 0.84375 -0.796875 0.765625 -0.875 0.609375 -0.875 C 0.503906 -0.875 0.429688 -0.84375 0.390625 -0.78125 C 0.347656 -0.71875 0.328125 -0.628906 0.328125 -0.515625 L 0.328125 0 L 0.15625 0 L 0.15625 -1 L 0.296875 -1 L 0.3125 -0.859375 L 0.328125 -0.859375 C 0.359375 -0.910156 0.398438 -0.945312 0.453125 -0.96875 C 0.515625 -1 0.578125 -1.015625 0.640625 -1.015625 Z M 0.640625 -1.015625 "/></g></g></g><g fill="#000000" fill-opacity="1"><g transform="translate(21.08046, 29.963224)"><g><path d="M 0.8125 -0.28125 C 0.8125 -0.175781 0.773438 -0.0976562 0.703125 -0.046875 C 0.628906 -0.00390625 0.53125 0.015625 0.40625 0.015625 C 0.34375 0.015625 0.285156 0.0078125 0.234375 0 C 0.179688 -0.0078125 0.132812 -0.0234375 0.09375 -0.046875 L 0.09375 -0.1875 C 0.132812 -0.164062 0.179688 -0.144531 0.234375 -0.125 C 0.296875 -0.113281 0.351562 -0.109375 0.40625 -0.109375 C 0.488281 -0.109375 0.550781 -0.117188 0.59375 -0.140625 C 0.632812 -0.171875 0.65625 -0.210938 0.65625 -0.265625 C 0.65625 -0.285156 0.644531 -0.304688 0.625 -0.328125 C 0.613281 -0.347656 0.585938 -0.367188 0.546875 -0.390625 C 0.515625 -0.410156 0.46875 -0.429688 0.40625 -0.453125 C 0.34375 -0.472656 0.285156 -0.492188 0.234375 -0.515625 C 0.191406 -0.546875 0.15625 -0.578125 0.125 -0.609375 C 0.101562 -0.648438 0.09375 -0.695312 0.09375 -0.75 C 0.09375 -0.832031 0.125 -0.894531 0.1875 -0.9375 C 0.257812 -0.988281 0.351562 -1.015625 0.46875 -1.015625 C 0.53125 -1.015625 0.585938 -1.007812 0.640625 -1 C 0.691406 -0.988281 0.738281 -0.972656 0.78125 -0.953125 L 0.734375 -0.8125 C 0.691406 -0.832031 0.644531 -0.847656 0.59375 -0.859375 C 0.550781 -0.867188 0.503906 -0.875 0.453125 -0.875 C 0.390625 -0.875 0.335938 -0.863281 0.296875 -0.84375 C 0.265625 -0.820312 0.25 -0.796875 0.25 -0.765625 C 0.25 -0.734375 0.253906 -0.707031 0.265625 -0.6875 C 0.285156 -0.664062 0.3125 -0.644531 0.34375 -0.625 C 0.382812 -0.613281 0.4375 -0.597656 0.5 -0.578125 C 0.570312 -0.546875 0.628906 -0.519531 0.671875 -0.5 C 0.710938 -0.476562 0.742188 -0.445312 0.765625 -0.40625 C 0.796875 -0.375 0.8125 -0.332031 0.8125 -0.28125 Z M 0.8125 -0.28125 "/></g></g></g><g fill="#000000" fill-opacity="1"><g transform="translate(22.103951, 29.963224)"><g><path d="M 0.625 -1.015625 C 0.75 -1.015625 0.847656 -0.972656 0.921875 -0.890625 C 1.003906 -0.804688 1.046875 -0.675781 1.046875 -0.5 C 1.046875 -0.332031 1.003906 -0.203125 0.921875 -0.109375 C 0.847656 -0.0234375 0.75 0.015625 0.625 0.015625 C 0.550781 0.015625 0.488281 0.00390625 0.4375 -0.015625 C 0.382812 -0.046875 0.347656 -0.0820312 0.328125 -0.125 L 0.3125 -0.125 C 0.3125 -0.101562 0.3125 -0.078125 0.3125 -0.046875 C 0.320312 -0.015625 0.328125 0.0078125 0.328125 0.03125 L 0.328125 0.453125 L 0.15625 0.453125 L 0.15625 -1 L 0.296875 -1 L 0.3125 -0.859375 L 0.328125 -0.859375 C 0.347656 -0.898438 0.382812 -0.9375 0.4375 -0.96875 C 0.488281 -1 0.550781 -1.015625 0.625 -1.015625 Z M 0.609375 -0.875 C 0.503906 -0.875 0.429688 -0.84375 0.390625 -0.78125 C 0.347656 -0.726562 0.328125 -0.644531 0.328125 -0.53125 L 0.328125 -0.5 C 0.328125 -0.375 0.34375 -0.273438 0.375 -0.203125 C 0.414062 -0.140625 0.492188 -0.109375 0.609375 -0.109375 C 0.671875 -0.109375 0.71875 -0.125 0.75 -0.15625 C 0.789062 -0.195312 0.820312 -0.242188 0.84375 -0.296875 C 0.863281 -0.359375 0.875 -0.425781 0.875 -0.5 C 0.875 -0.613281 0.847656 -0.703125 0.796875 -0.765625 C 0.753906 -0.835938 0.691406 -0.875 0.609375 -0.875 Z M 0.609375 -0.875 "/></g></g></g><g fill="#000000" fill-opacity="1"><g transform="translate(23.380043, 29.963224)"><g><path d="M 0.234375 -1.375 C 0.265625 -1.375 0.289062 -1.363281 0.3125 -1.34375 C 0.332031 -1.320312 0.34375 -1.296875 0.34375 -1.265625 C 0.34375 -1.234375 0.332031 -1.207031 0.3125 -1.1875 C 0.289062 -1.164062 0.265625 -1.15625 0.234375 -1.15625 C 0.210938 -1.15625 0.191406 -1.164062 0.171875 -1.1875 C 0.148438 -1.207031 0.140625 -1.234375 0.140625 -1.265625 C 0.140625 -1.296875 0.148438 -1.320312 0.171875 -1.34375 C 0.191406 -1.363281 0.210938 -1.375 0.234375 -1.375 Z M 0.328125 -1 L 0.328125 0 L 0.15625 0 L 0.15625 -1 Z M 0.328125 -1 "/></g></g></g><g fill="#000000" fill-opacity="1"><g transform="translate(23.993057, 29.963224)"><g><path d="M 0.625 -1.015625 C 0.644531 -1.015625 0.664062 -1.015625 0.6875 -1.015625 C 0.707031 -1.015625 0.722656 -1.007812 0.734375 -1 L 0.71875 -0.859375 C 0.707031 -0.859375 0.691406 -0.859375 0.671875 -0.859375 C 0.648438 -0.859375 0.628906 -0.859375 0.609375 -0.859375 C 0.554688 -0.859375 0.507812 -0.84375 0.46875 -0.8125 C 0.425781 -0.789062 0.390625 -0.753906 0.359375 -0.703125 C 0.335938 -0.648438 0.328125 -0.59375 0.328125 -0.53125 L 0.328125 0 L 0.15625 0 L 0.15625 -1 L 0.296875 -1 L 0.3125 -0.8125 C 0.34375 -0.863281 0.382812 -0.910156 0.4375 -0.953125 C 0.488281 -0.992188 0.550781 -1.015625 0.625 -1.015625 Z M 0.625 -1.015625 "/></g></g></g><g fill="#000000" fill-opacity="1"><g transform="translate(24.893963, 29.963224)"><g><path d="M 0.53125 -1.015625 C 0.65625 -1.015625 0.742188 -0.988281 0.796875 -0.9375 C 0.859375 -0.882812 0.890625 -0.796875 0.890625 -0.671875 L 0.890625 0 L 0.78125 0 L 0.734375 -0.140625 C 0.691406 -0.0859375 0.644531 -0.046875 0.59375 -0.015625 C 0.550781 0.00390625 0.488281 0.015625 0.40625 0.015625 C 0.3125 0.015625 0.234375 -0.00390625 0.171875 -0.046875 C 0.109375 -0.0976562 0.078125 -0.175781 0.078125 -0.28125 C 0.078125 -0.375 0.113281 -0.445312 0.1875 -0.5 C 0.269531 -0.5625 0.394531 -0.59375 0.5625 -0.59375 L 0.734375 -0.59375 L 0.734375 -0.65625 C 0.734375 -0.738281 0.710938 -0.796875 0.671875 -0.828125 C 0.640625 -0.859375 0.59375 -0.875 0.53125 -0.875 C 0.476562 -0.875 0.425781 -0.863281 0.375 -0.84375 C 0.332031 -0.832031 0.289062 -0.820312 0.25 -0.8125 L 0.1875 -0.921875 C 0.238281 -0.953125 0.289062 -0.972656 0.34375 -0.984375 C 0.40625 -1.003906 0.46875 -1.015625 0.53125 -1.015625 Z M 0.734375 -0.484375 L 0.578125 -0.484375 C 0.453125 -0.472656 0.363281 -0.453125 0.3125 -0.421875 C 0.269531 -0.390625 0.25 -0.34375 0.25 -0.28125 C 0.25 -0.21875 0.265625 -0.171875 0.296875 -0.140625 C 0.335938 -0.117188 0.382812 -0.109375 0.4375 -0.109375 C 0.519531 -0.109375 0.585938 -0.128906 0.640625 -0.171875 C 0.703125 -0.222656 0.734375 -0.296875 0.734375 -0.390625 Z M 0.734375 -0.484375 "/></g></g></g><g fill="#000000" fill-opacity="1"><g transform="translate(26.069757, 29.963224)"><g><path d="M 0.484375 -0.109375 C 0.515625 -0.109375 0.539062 -0.109375 0.5625 -0.109375 C 0.59375 -0.117188 0.613281 -0.128906 0.625 -0.140625 L 0.625 -0.015625 C 0.613281 -0.00390625 0.585938 0 0.546875 0 C 0.515625 0.0078125 0.488281 0.015625 0.46875 0.015625 C 0.414062 0.015625 0.363281 0.0078125 0.3125 0 C 0.269531 -0.0195312 0.234375 -0.0507812 0.203125 -0.09375 C 0.179688 -0.144531 0.171875 -0.210938 0.171875 -0.296875 L 0.171875 -0.875 L 0.03125 -0.875 L 0.03125 -0.953125 L 0.171875 -1.015625 L 0.234375 -1.21875 L 0.328125 -1.21875 L 0.328125 -1 L 0.625 -1 L 0.625 -0.875 L 0.328125 -0.875 L 0.328125 -0.296875 C 0.328125 -0.234375 0.34375 -0.1875 0.375 -0.15625 C 0.40625 -0.125 0.441406 -0.109375 0.484375 -0.109375 Z M 0.484375 -0.109375 "/></g></g></g><g fill="#000000" fill-opacity="1"><g transform="translate(26.87408, 29.963224)"><g><path d="M 0.234375 -1.375 C 0.265625 -1.375 0.289062 -1.363281 0.3125 -1.34375 C 0.332031 -1.320312 0.34375 -1.296875 0.34375 -1.265625 C 0.34375 -1.234375 0.332031 -1.207031 0.3125 -1.1875 C 0.289062 -1.164062 0.265625 -1.15625 0.234375 -1.15625 C 0.210938 -1.15625 0.191406 -1.164062 0.171875 -1.1875 C 0.148438 -1.207031 0.140625 -1.234375 0.140625 -1.265625 C 0.140625 -1.296875 0.148438 -1.320312 0.171875 -1.34375 C 0.191406 -1.363281 0.210938 -1.375 0.234375 -1.375 Z M 0.328125 -1 L 0.328125 0 L 0.15625 0 L 0.15625 -1 Z M 0.328125 -1 "/></g></g></g><g fill="#000000" fill-opacity="1"><g transform="translate(27.487094, 29.963224)"><g><path d="M 1.03125 -0.5 C 1.03125 -0.332031 0.988281 -0.203125 0.90625 -0.109375 C 0.820312 -0.0234375 0.707031 0.015625 0.5625 0.015625 C 0.46875 0.015625 0.382812 -0.00390625 0.3125 -0.046875 C 0.25 -0.0859375 0.195312 -0.144531 0.15625 -0.21875 C 0.125 -0.289062 0.109375 -0.382812 0.109375 -0.5 C 0.109375 -0.664062 0.144531 -0.789062 0.21875 -0.875 C 0.300781 -0.96875 0.414062 -1.015625 0.5625 -1.015625 C 0.65625 -1.015625 0.734375 -0.992188 0.796875 -0.953125 C 0.867188 -0.910156 0.925781 -0.851562 0.96875 -0.78125 C 1.007812 -0.707031 1.03125 -0.613281 1.03125 -0.5 Z M 0.265625 -0.5 C 0.265625 -0.382812 0.285156 -0.289062 0.328125 -0.21875 C 0.378906 -0.144531 0.457031 -0.109375 0.5625 -0.109375 C 0.664062 -0.109375 0.738281 -0.144531 0.78125 -0.21875 C 0.832031 -0.289062 0.859375 -0.382812 0.859375 -0.5 C 0.859375 -0.613281 0.832031 -0.703125 0.78125 -0.765625 C 0.738281 -0.835938 0.664062 -0.875 0.5625 -0.875 C 0.457031 -0.875 0.378906 -0.835938 0.328125 -0.765625 C 0.285156 -0.703125 0.265625 -0.613281 0.265625 -0.5 Z M 0.265625 -0.5 "/></g></g></g><g fill="#000000" fill-opacity="1"><g transform="translate(28.744613, 29.963224)"><g><path d="M 0.640625 -1.015625 C 0.753906 -1.015625 0.84375 -0.984375 0.90625 -0.921875 C 0.96875 -0.867188 1 -0.78125 1 -0.65625 L 1 0 L 0.84375 0 L 0.84375 -0.640625 C 0.84375 -0.796875 0.765625 -0.875 0.609375 -0.875 C 0.503906 -0.875 0.429688 -0.84375 0.390625 -0.78125 C 0.347656 -0.71875 0.328125 -0.628906 0.328125 -0.515625 L 0.328125 0 L 0.15625 0 L 0.15625 -1 L 0.296875 -1 L 0.3125 -0.859375 L 0.328125 -0.859375 C 0.359375 -0.910156 0.398438 -0.945312 0.453125 -0.96875 C 0.515625 -1 0.578125 -1.015625 0.640625 -1.015625 Z M 0.640625 -1.015625 "/></g></g></g><g fill="#000000" fill-opacity="1"><g transform="translate(3.716789, 27.43777)"><g><path d="M 0.625 0 L 1.03125 -1.09375 L 2.703125 -1.09375 L 3.140625 0.046875 L 3.703125 -0.03125 L 2.125 -4.09375 L 1.609375 -4.09375 L 0.0625 0 Z M 1.859375 -3.328125 L 2.53125 -1.5625 L 1.203125 -1.5625 Z M 1.859375 -3.328125 "/></g></g></g><g fill="#000000" fill-opacity="1"><g transform="translate(7.234498, 27.43777)"><g><path d="M 2.203125 -4.203125 C 1.828125 -4.191406 1.488281 -4.09375 1.1875 -3.90625 C 0.894531 -3.71875 0.660156 -3.457031 0.484375 -3.125 C 0.316406 -2.800781 0.234375 -2.4375 0.234375 -2.03125 C 0.234375 -1.625 0.316406 -1.257812 0.484375 -0.9375 C 0.648438 -0.613281 0.878906 -0.363281 1.171875 -0.1875 C 1.472656 -0.0078125 1.8125 0.078125 2.1875 0.078125 C 2.5625 0.078125 2.898438 -0.015625 3.203125 -0.203125 C 3.503906 -0.390625 3.738281 -0.644531 3.90625 -0.96875 C 4.070312 -1.300781 4.15625 -1.671875 4.15625 -2.078125 C 4.15625 -2.484375 4.070312 -2.847656 3.90625 -3.171875 C 3.738281 -3.492188 3.503906 -3.742188 3.203125 -3.921875 C 2.910156 -4.109375 2.578125 -4.203125 2.203125 -4.203125 Z M 0.84375 -2.03125 C 0.84375 -2.351562 0.898438 -2.640625 1.015625 -2.890625 C 1.128906 -3.140625 1.289062 -3.335938 1.5 -3.484375 C 1.71875 -3.628906 1.957031 -3.703125 2.21875 -3.703125 C 2.46875 -3.703125 2.691406 -3.628906 2.890625 -3.484375 C 3.097656 -3.347656 3.257812 -3.15625 3.375 -2.90625 C 3.488281 -2.664062 3.546875 -2.390625 3.546875 -2.078125 C 3.546875 -1.753906 3.484375 -1.46875 3.359375 -1.21875 C 3.242188 -0.96875 3.082031 -0.769531 2.875 -0.625 C 2.664062 -0.476562 2.429688 -0.40625 2.171875 -0.40625 C 1.921875 -0.40625 1.691406 -0.472656 1.484375 -0.609375 C 1.285156 -0.753906 1.128906 -0.953125 1.015625 -1.203125 C 0.898438 -1.453125 0.84375 -1.726562 0.84375 -2.03125 Z M 0.84375 -2.03125 "/></g></g></g><g fill="#000000" fill-opacity="1"><g transform="translate(11.378655, 27.43777)"><g><path d="M 2.9375 -4.09375 L 2.9375 -2.296875 L 1.125 -2.296875 L 1.125 -4.125 L 0.546875 -4.09375 L 0.546875 0 L 1.125 0 L 1.125 -1.828125 L 2.9375 -1.828125 L 2.9375 0 L 3.515625 0 L 3.515625 -4.09375 Z M 2.9375 -4.09375 "/></g></g></g><g fill="#000000" fill-opacity="1"><g transform="translate(15.191518, 27.43777)"><g/></g></g><g fill="#000000" fill-opacity="1"><g transform="translate(16.32993, 27.43777)"><g><path d="M 2.953125 -0.515625 C 2.734375 -0.441406 2.507812 -0.40625 2.28125 -0.40625 C 2.007812 -0.40625 1.765625 -0.472656 1.546875 -0.609375 C 1.328125 -0.742188 1.15625 -0.929688 1.03125 -1.171875 C 0.90625 -1.421875 0.84375 -1.707031 0.84375 -2.03125 C 0.84375 -2.375 0.910156 -2.671875 1.046875 -2.921875 C 1.191406 -3.179688 1.378906 -3.375 1.609375 -3.5 C 1.835938 -3.625 2.09375 -3.6875 2.375 -3.6875 C 2.550781 -3.6875 2.691406 -3.675781 2.796875 -3.65625 C 2.910156 -3.632812 3.054688 -3.585938 3.234375 -3.515625 L 3.421875 -3.9375 C 3.285156 -4.019531 3.113281 -4.082031 2.90625 -4.125 C 2.695312 -4.164062 2.515625 -4.1875 2.359375 -4.1875 C 1.960938 -4.1875 1.601562 -4.09375 1.28125 -3.90625 C 0.957031 -3.726562 0.703125 -3.472656 0.515625 -3.140625 C 0.328125 -2.816406 0.234375 -2.445312 0.234375 -2.03125 C 0.234375 -1.625 0.316406 -1.257812 0.484375 -0.9375 C 0.660156 -0.625 0.898438 -0.375 1.203125 -0.1875 C 1.515625 -0.0078125 1.878906 0.078125 2.296875 0.078125 C 2.503906 0.078125 2.71875 0.0507812 2.9375 0 C 3.15625 -0.0507812 3.335938 -0.117188 3.484375 -0.203125 L 3.484375 -2.15625 L 2.109375 -2.15625 L 2.0625 -1.71875 L 2.953125 -1.71875 Z M 2.953125 -0.515625 "/></g></g></g><g fill="#000000" fill-opacity="1"><g transform="translate(19.86571, 27.43777)"><g><path d="M 1.125 0 L 1.125 -1.640625 L 1.65625 -1.640625 C 1.84375 -1.640625 1.96875 -1.644531 2.03125 -1.65625 L 2.953125 0 L 3.578125 0 L 2.546875 -1.8125 C 2.765625 -1.90625 2.9375 -2.039062 3.0625 -2.21875 C 3.195312 -2.40625 3.265625 -2.628906 3.265625 -2.890625 C 3.265625 -3.296875 3.117188 -3.597656 2.828125 -3.796875 C 2.546875 -3.992188 2.175781 -4.09375 1.71875 -4.09375 L 0.546875 -4.09375 L 0.546875 0 Z M 1.71875 -3.609375 C 2.019531 -3.609375 2.253906 -3.550781 2.421875 -3.4375 C 2.585938 -3.320312 2.671875 -3.128906 2.671875 -2.859375 C 2.660156 -2.597656 2.566406 -2.40625 2.390625 -2.28125 C 2.210938 -2.164062 1.976562 -2.109375 1.6875 -2.109375 L 1.125 -2.109375 L 1.125 -3.609375 Z M 1.71875 -3.609375 "/></g></g></g><g fill="#000000" fill-opacity="1"><g transform="translate(23.256925, 27.43777)"><g><path d="M 2.203125 -4.203125 C 1.828125 -4.191406 1.488281 -4.09375 1.1875 -3.90625 C 0.894531 -3.71875 0.660156 -3.457031 0.484375 -3.125 C 0.316406 -2.800781 0.234375 -2.4375 0.234375 -2.03125 C 0.234375 -1.625 0.316406 -1.257812 0.484375 -0.9375 C 0.648438 -0.613281 0.878906 -0.363281 1.171875 -0.1875 C 1.472656 -0.0078125 1.8125 0.078125 2.1875 0.078125 C 2.5625 0.078125 2.898438 -0.015625 3.203125 -0.203125 C 3.503906 -0.390625 3.738281 -0.644531 3.90625 -0.96875 C 4.070312 -1.300781 4.15625 -1.671875 4.15625 -2.078125 C 4.15625 -2.484375 4.070312 -2.847656 3.90625 -3.171875 C 3.738281 -3.492188 3.503906 -3.742188 3.203125 -3.921875 C 2.910156 -4.109375 2.578125 -4.203125 2.203125 -4.203125 Z M 0.84375 -2.03125 C 0.84375 -2.351562 0.898438 -2.640625 1.015625 -2.890625 C 1.128906 -3.140625 1.289062 -3.335938 1.5 -3.484375 C 1.71875 -3.628906 1.957031 -3.703125 2.21875 -3.703125 C 2.46875 -3.703125 2.691406 -3.628906 2.890625 -3.484375 C 3.097656 -3.347656 3.257812 -3.15625 3.375 -2.90625 C 3.488281 -2.664062 3.546875 -2.390625 3.546875 -2.078125 C 3.546875 -1.753906 3.484375 -1.46875 3.359375 -1.21875 C 3.242188 -0.96875 3.082031 -0.769531 2.875 -0.625 C 2.664062 -0.476562 2.429688 -0.40625 2.171875 -0.40625 C 1.921875 -0.40625 1.691406 -0.472656 1.484375 -0.609375 C 1.285156 -0.753906 1.128906 -0.953125 1.015625 -1.203125 C 0.898438 -1.453125 0.84375 -1.726562 0.84375 -2.03125 Z M 0.84375 -2.03125 "/></g></g></g><g fill="#000000" fill-opacity="1"><g transform="translate(27.401081, 27.43777)"><g><path d="M 0.484375 -1.46875 C 0.484375 -1.175781 0.546875 -0.910156 0.671875 -0.671875 C 0.804688 -0.441406 0.992188 -0.257812 1.234375 -0.125 C 1.472656 0 1.753906 0.0625 2.078125 0.0625 C 2.398438 0.0625 2.679688 0 2.921875 -0.125 C 3.160156 -0.257812 3.34375 -0.441406 3.46875 -0.671875 C 3.601562 -0.910156 3.671875 -1.175781 3.671875 -1.46875 L 3.671875 -4.09375 L 3.09375 -4.09375 L 3.09375 -1.515625 C 3.09375 -1.179688 3 -0.910156 2.8125 -0.703125 C 2.632812 -0.503906 2.390625 -0.40625 2.078125 -0.40625 C 1.773438 -0.40625 1.53125 -0.503906 1.34375 -0.703125 C 1.15625 -0.898438 1.0625 -1.171875 1.0625 -1.515625 L 1.0625 -4.09375 L 0.484375 -4.09375 Z M 0.484375 -1.46875 "/></g></g></g><g fill="#000000" fill-opacity="1"><g transform="translate(31.310319, 27.43777)"><g><path d="M 1.65625 -1.515625 C 1.957031 -1.515625 2.226562 -1.5625 2.46875 -1.65625 C 2.707031 -1.75 2.898438 -1.890625 3.046875 -2.078125 C 3.191406 -2.273438 3.265625 -2.523438 3.265625 -2.828125 C 3.265625 -3.253906 3.125 -3.570312 2.84375 -3.78125 C 2.5625 -3.988281 2.1875 -4.09375 1.71875 -4.09375 L 0.546875 -4.09375 L 0.546875 0 L 1.125 0 L 1.125 -1.515625 Z M 1.71875 -3.609375 C 2.03125 -3.609375 2.265625 -3.546875 2.421875 -3.421875 C 2.585938 -3.304688 2.671875 -3.097656 2.671875 -2.796875 C 2.648438 -2.523438 2.550781 -2.320312 2.375 -2.1875 C 2.207031 -2.050781 1.976562 -1.984375 1.6875 -1.984375 L 1.125 -1.984375 L 1.125 -3.609375 Z M 1.71875 -3.609375 "/></g></g></g><g fill="#2cb1bc" fill-opacity="1"><g transform="translate(44.748674, 25.35198)"><g><path d="M 6.3125 -3.46875 L 9.59375 -13.375 L 12.453125 -13.375 L 7.65625 0 L 4.765625 0 L 0 -13.375 L 2.9375 -13.375 Z M 6.3125 -3.46875 "/></g></g></g><g fill="#2cb1bc" fill-opacity="1"><g transform="translate(57.206117, 25.35198)"><g><path d="M 3.84375 -11 L 1.296875 -11 L 1.296875 -13.375 L 3.84375 -13.375 Z M 3.84375 -9.6875 L 3.84375 0.0625 C 3.84375 0.894531 3.773438 1.582031 3.640625 2.125 C 3.503906 2.675781 3.222656 3.113281 2.796875 3.4375 C 2.378906 3.757812 1.757812 3.921875 0.9375 3.921875 C 0.488281 3.921875 -0.109375 3.828125 -0.859375 3.640625 L -0.40625 1.453125 C -0.0625 1.503906 0.144531 1.53125 0.21875 1.53125 C 0.664062 1.53125 0.957031 1.40625 1.09375 1.15625 C 1.226562 0.914062 1.296875 0.488281 1.296875 -0.125 L 1.296875 -9.6875 Z M 3.84375 -9.6875 "/></g></g></g><g fill="#2cb1bc" fill-opacity="1"><g transform="translate(62.398275, 25.35198)"><g><path d="M 5.046875 -9.90625 C 6.585938 -9.90625 7.738281 -9.398438 8.5 -8.390625 C 9.257812 -7.390625 9.640625 -5.960938 9.640625 -4.109375 L 3.21875 -4.109375 C 3.238281 -3.460938 3.425781 -2.90625 3.78125 -2.4375 C 4.132812 -1.96875 4.648438 -1.734375 5.328125 -1.734375 C 5.753906 -1.734375 6.097656 -1.84375 6.359375 -2.0625 C 6.628906 -2.28125 6.828125 -2.617188 6.953125 -3.078125 L 9.515625 -2.65625 C 9.191406 -1.707031 8.664062 -0.988281 7.9375 -0.5 C 7.21875 -0.0195312 6.332031 0.21875 5.28125 0.21875 C 3.726562 0.21875 2.550781 -0.242188 1.75 -1.171875 C 1.382812 -1.609375 1.097656 -2.15625 0.890625 -2.8125 C 0.691406 -3.476562 0.59375 -4.132812 0.59375 -4.78125 C 0.59375 -5.664062 0.75 -6.5 1.0625 -7.28125 C 1.382812 -8.0625 1.878906 -8.691406 2.546875 -9.171875 C 3.210938 -9.660156 4.046875 -9.90625 5.046875 -9.90625 Z M 3.265625 -5.6875 L 7.09375 -5.6875 C 7.082031 -6.46875 6.882812 -7.035156 6.5 -7.390625 C 6.125 -7.753906 5.679688 -7.9375 5.171875 -7.9375 C 4.578125 -7.9375 4.109375 -7.722656 3.765625 -7.296875 C 3.429688 -6.867188 3.265625 -6.332031 3.265625 -5.6875 Z M 3.265625 -5.6875 "/></g></g></g><g fill="#2cb1bc" fill-opacity="1"><g transform="translate(72.78259, 25.35198)"><g><path d="M 4.03125 -9.6875 L 5.78125 -9.6875 L 5.78125 -7.640625 L 4.03125 -7.640625 L 4.03125 -3.375 C 4.03125 -2.96875 4.046875 -2.664062 4.078125 -2.46875 C 4.109375 -2.269531 4.171875 -2.125 4.265625 -2.03125 C 4.367188 -1.945312 4.53125 -1.90625 4.75 -1.90625 C 5.007812 -1.90625 5.351562 -1.988281 5.78125 -2.15625 L 6 -0.171875 C 5.738281 -0.046875 5.421875 0.046875 5.046875 0.109375 C 4.671875 0.179688 4.316406 0.21875 3.984375 0.21875 C 3.492188 0.21875 3.0625 0.140625 2.6875 -0.015625 C 2.3125 -0.179688 2.039062 -0.398438 1.875 -0.671875 C 1.6875 -0.984375 1.566406 -1.328125 1.515625 -1.703125 C 1.472656 -2.085938 1.453125 -2.566406 1.453125 -3.140625 L 1.453125 -7.640625 L 0.28125 -7.640625 L 0.28125 -9.6875 L 1.453125 -9.6875 L 1.453125 -11.609375 L 4.03125 -13.125 Z M 4.03125 -9.6875 "/></g></g></g><g fill="#2cb1bc" fill-opacity="1"><g transform="translate(79.001972, 25.35198)"><g><path d="M 8.890625 -13.375 L 8.890625 -4.46875 C 8.890625 -3.0625 8.546875 -1.925781 7.859375 -1.0625 C 7.179688 -0.207031 6.050781 0.21875 4.46875 0.21875 C 1.78125 0.21875 0.394531 -1.238281 0.3125 -4.15625 L 2.875 -4.484375 L 2.875 -4.375 C 2.914062 -3.6875 3.046875 -3.132812 3.265625 -2.71875 C 3.484375 -2.300781 3.914062 -2.09375 4.5625 -2.09375 C 5.226562 -2.09375 5.664062 -2.289062 5.875 -2.6875 C 6.09375 -3.082031 6.203125 -3.675781 6.203125 -4.46875 L 6.203125 -13.375 Z M 8.890625 -13.375 "/></g></g></g><g fill="#2cb1bc" fill-opacity="1"><g transform="translate(89.386288, 25.35198)"><g><path d="M 5.734375 -9.90625 C 6.785156 -9.90625 7.691406 -9.664062 8.453125 -9.1875 C 9.210938 -8.71875 9.785156 -8.097656 10.171875 -7.328125 C 10.554688 -6.554688 10.75 -5.738281 10.75 -4.875 C 10.75 -3.976562 10.546875 -3.140625 10.140625 -2.359375 C 9.734375 -1.585938 9.148438 -0.960938 8.390625 -0.484375 C 7.640625 -0.015625 6.757812 0.21875 5.75 0.21875 C 4.894531 0.21875 4.085938 0.0390625 3.328125 -0.3125 C 2.566406 -0.664062 1.945312 -1.226562 1.46875 -2 C 0.988281 -2.78125 0.75 -3.769531 0.75 -4.96875 C 0.75 -5.800781 0.9375 -6.59375 1.3125 -7.34375 C 1.695312 -8.101562 2.265625 -8.71875 3.015625 -9.1875 C 3.773438 -9.664062 4.679688 -9.90625 5.734375 -9.90625 Z M 3.375 -4.84375 C 3.375 -3.863281 3.601562 -3.125 4.0625 -2.625 C 4.519531 -2.125 5.078125 -1.875 5.734375 -1.875 C 6.398438 -1.875 6.960938 -2.117188 7.421875 -2.609375 C 7.878906 -3.109375 8.109375 -3.859375 8.109375 -4.859375 C 8.109375 -5.773438 7.882812 -6.492188 7.4375 -7.015625 C 7 -7.546875 6.425781 -7.8125 5.71875 -7.8125 C 5.070312 -7.8125 4.519531 -7.554688 4.0625 -7.046875 C 3.601562 -6.535156 3.375 -5.800781 3.375 -4.84375 Z M 3.375 -4.84375 "/></g></g></g><g fill="#2cb1bc" fill-opacity="1"><g transform="translate(100.797828, 25.35198)"><g><path d="M 3.796875 -8.5625 C 4.578125 -9.457031 5.515625 -9.90625 6.609375 -9.90625 C 7.359375 -9.90625 8.039062 -9.71875 8.65625 -9.34375 C 9.28125 -8.976562 9.773438 -8.421875 10.140625 -7.671875 C 10.503906 -6.929688 10.6875 -6.019531 10.6875 -4.9375 C 10.6875 -3.8125 10.492188 -2.863281 10.109375 -2.09375 C 9.734375 -1.320312 9.238281 -0.742188 8.625 -0.359375 C 8.007812 0.0234375 7.347656 0.21875 6.640625 0.21875 C 6.148438 0.21875 5.625 0.0859375 5.0625 -0.171875 C 4.507812 -0.429688 4.03125 -0.847656 3.625 -1.421875 L 3.625 0 L 1.234375 0 L 1.234375 -13.375 L 3.796875 -13.375 Z M 3.78125 -5.046875 C 3.78125 -4.484375 3.816406 -4.023438 3.890625 -3.671875 C 3.972656 -3.316406 4.109375 -3.007812 4.296875 -2.75 C 4.742188 -2.125 5.316406 -1.8125 6.015625 -1.8125 C 6.566406 -1.8125 7.039062 -2.046875 7.4375 -2.515625 C 7.84375 -2.992188 8.046875 -3.765625 8.046875 -4.828125 C 8.046875 -5.765625 7.875 -6.515625 7.53125 -7.078125 C 7.195312 -7.648438 6.65625 -7.9375 5.90625 -7.9375 C 5.28125 -7.9375 4.769531 -7.691406 4.375 -7.203125 C 3.976562 -6.710938 3.78125 -5.992188 3.78125 -5.046875 Z M 3.78125 -5.046875 "/></g></g></g></svg>